<svg id="Layer_2" data-name="Layer 2" xmlns="http://www.w3.org/2000/svg" viewBox="0 0 86.32 102.29">
  <defs>
    <style>
      .cls-1 {
        fill: #ff9ca1;
        stroke-width: 0px;
      }
    </style>
  </defs>
  <g id="Layer_1-2" data-name="Layer 1">
    <g>
      <path class="cls-1" d="m86.32,75.21c0,16.25-25.41,26.18-39.68,27.09V0c10.82,2.59,17.67,5.79,19.28,18.42,2,15.56-20.86,40.62-16.87,36.18,14.62-16.3,35.57-24.83,35.85-12.47.33,14.49-32.26,33.09-32.26,33.09,0,0,33.67-16.25,33.67,0Z"/>
      <path class="cls-1" d="m33.68,75.21S1.09,56.61,1.42,42.12c.28-12.36,21.23-3.83,35.85,12.47,3.99,4.45-18.87-20.61-16.88-36.18C22.02,5.79,28.86,2.59,39.68,0v102.29c-14.26-.9-39.68-10.83-39.68-27.09s33.68,0,33.68,0Z"/>
    </g>
  </g>
</svg>